<svg width="168" height="168" viewBox="0 0 168 168" fill="none" xmlns="http://www.w3.org/2000/svg">
<g filter="url(#filter0_d_980_368)">
<rect x="40" y="36" width="88" height="88" rx="44" fill="white"/>
<path d="M77.4167 81.524L96.2725 65.024C96.2725 65.024 98.0392 63.2573 99.8075 65.024C101.575 66.7923 99.8075 68.5598 99.8075 68.5598L83.3083 87.4165L77.4167 81.524Z" stroke="#FB4A7B" stroke-width="3" stroke-linejoin="round"/>
<path d="M82.72 77.3989L87.4342 82.1131" stroke="#FB4A7B" stroke-width="3" stroke-linecap="round" stroke-linejoin="round"/>
<path d="M68.5775 85.648L77.4167 81.5229L83.3083 87.4163L79.1833 96.2546C79.1833 96.2546 75.0583 96.8438 71.5233 93.3088C67.9875 89.773 68.5767 85.648 68.5767 85.648H68.5775Z" stroke="#FB4A7B" stroke-width="3" stroke-linejoin="round"/>
<path d="M69.7567 90.3622L73.8817 88.5947M74.4708 95.0764L75.65 92.7197" stroke="#FB4A7B" stroke-width="3" stroke-linecap="round" stroke-linejoin="round"/>
<path d="M79.775 79.4614L82.1317 77.3989L84.4883 75.3364M89.4967 80.3448L87.4342 82.7014L85.3717 85.0589" stroke="#FB4A7B" stroke-width="3" stroke-linejoin="round"/>
</g>
<defs>
<filter id="filter0_d_980_368" x="0" y="0" width="168" height="168" filterUnits="userSpaceOnUse" color-interpolation-filters="sRGB">
<feFlood flood-opacity="0" result="BackgroundImageFix"/>
<feColorMatrix in="SourceAlpha" type="matrix" values="0 0 0 0 0 0 0 0 0 0 0 0 0 0 0 0 0 0 127 0" result="hardAlpha"/>
<feOffset dy="4"/>
<feGaussianBlur stdDeviation="20"/>
<feColorMatrix type="matrix" values="0 0 0 0 0.1504 0 0 0 0 0.16096 0 0 0 0 0.1696 0 0 0 0.07 0"/>
<feBlend mode="normal" in2="BackgroundImageFix" result="effect1_dropShadow_980_368"/>
<feBlend mode="normal" in="SourceGraphic" in2="effect1_dropShadow_980_368" result="shape"/>
</filter>
</defs>
</svg>
