<svg width="168" height="168" viewBox="0 0 168 168" fill="none" xmlns="http://www.w3.org/2000/svg">
<g filter="url(#filter0_d_980_386)">
<rect x="40" y="36" width="88" height="88" rx="44" fill="white"/>
<path d="M92.3333 66.6665L97.3333 71.6665M94.8333 69.1665L81.5 82.4998M77.7933 78.8065L85.1933 86.2065C85.3431 86.3563 85.462 86.5342 85.5431 86.7299C85.6242 86.9257 85.6659 87.1355 85.6659 87.3473C85.6659 87.5592 85.6242 87.769 85.5431 87.9648C85.462 88.1605 85.3431 88.3384 85.1933 88.4882L80.6867 92.9948C79.4001 94.267 77.6624 94.9781 75.8531 94.973C74.0438 94.9678 72.3102 94.2467 71.0309 92.9672C69.7517 91.6878 69.0309 89.954 69.026 88.1447C69.0212 86.3355 69.7326 84.5978 71.005 83.3115L75.5117 78.8065C75.6615 78.6564 75.8395 78.5374 76.0354 78.4561C76.2313 78.3749 76.4413 78.3331 76.6533 78.3331C76.8654 78.3331 77.0754 78.3749 77.2713 78.4561C77.4672 78.5374 77.6451 78.6564 77.795 78.8065H77.7933Z" stroke="#FB4A7B" stroke-width="3.5" stroke-linecap="round" stroke-linejoin="round"/>
</g>
<defs>
<filter id="filter0_d_980_386" x="0" y="0" width="168" height="168" filterUnits="userSpaceOnUse" color-interpolation-filters="sRGB">
<feFlood flood-opacity="0" result="BackgroundImageFix"/>
<feColorMatrix in="SourceAlpha" type="matrix" values="0 0 0 0 0 0 0 0 0 0 0 0 0 0 0 0 0 0 127 0" result="hardAlpha"/>
<feOffset dy="4"/>
<feGaussianBlur stdDeviation="20"/>
<feColorMatrix type="matrix" values="0 0 0 0 0.1504 0 0 0 0 0.16096 0 0 0 0 0.1696 0 0 0 0.07 0"/>
<feBlend mode="normal" in2="BackgroundImageFix" result="effect1_dropShadow_980_386"/>
<feBlend mode="normal" in="SourceGraphic" in2="effect1_dropShadow_980_386" result="shape"/>
</filter>
</defs>
</svg>
