<svg width="168" height="168" viewBox="0 0 168 168" fill="none" xmlns="http://www.w3.org/2000/svg">
<g filter="url(#filter0_d_980_404)">
<rect x="40" y="36" width="88" height="88" rx="44" fill="white"/>
<path d="M94.6667 74.9998V75.9998H95.6667C97.8644 75.9998 99.6667 77.8021 99.6667 79.9998V88.3332C99.6667 90.5309 97.8644 92.3332 95.6667 92.3332H94.6667V93.3332V95.6665H93.3334V93.3332V92.3332H92.3334H75.6667H74.6667V93.3332V95.6665H73.3334V93.3332V92.3332H72.3334C70.1357 92.3332 68.3334 90.5309 68.3334 88.3332V79.9998C68.3334 77.8021 70.1357 75.9998 72.3334 75.9998H73.3334V74.9998V71.6665C73.3334 69.4688 75.1357 67.6665 77.3334 67.6665H90.6667C92.8644 67.6665 94.6667 69.4688 94.6667 71.6665V74.9998ZM93.003 77.0425L93.3334 76.7447V76.2998V71.6665C93.3334 70.1976 92.1357 68.9998 90.6667 68.9998H77.3334C75.8644 68.9998 74.6667 70.1976 74.6667 71.6665V76.2998V76.7447L74.9971 77.0425C75.8189 77.7835 76.3334 78.8366 76.3334 79.9998V83.3332V84.3332H77.3334H90.6667H91.6667V83.3332V79.9998C91.6667 78.8366 92.1812 77.7835 93.003 77.0425ZM95.6667 90.9998C97.1357 90.9998 98.3334 89.8021 98.3334 88.3332V79.9998C98.3334 78.5309 97.1357 77.3332 95.6667 77.3332C94.1978 77.3332 93 78.5309 93 79.9998V85.6665H75V79.9998C75 78.5309 73.8023 77.3332 72.3334 77.3332C70.8644 77.3332 69.6667 78.5309 69.6667 79.9998V88.3332C69.6667 89.8021 70.8644 90.9998 72.3334 90.9998H95.6667Z" fill="#232323" stroke="#FB4A7B" stroke-width="2"/>
</g>
<defs>
<filter id="filter0_d_980_404" x="0" y="0" width="168" height="168" filterUnits="userSpaceOnUse" color-interpolation-filters="sRGB">
<feFlood flood-opacity="0" result="BackgroundImageFix"/>
<feColorMatrix in="SourceAlpha" type="matrix" values="0 0 0 0 0 0 0 0 0 0 0 0 0 0 0 0 0 0 127 0" result="hardAlpha"/>
<feOffset dy="4"/>
<feGaussianBlur stdDeviation="20"/>
<feColorMatrix type="matrix" values="0 0 0 0 0.1504 0 0 0 0 0.16096 0 0 0 0 0.1696 0 0 0 0.07 0"/>
<feBlend mode="normal" in2="BackgroundImageFix" result="effect1_dropShadow_980_404"/>
<feBlend mode="normal" in="SourceGraphic" in2="effect1_dropShadow_980_404" result="shape"/>
</filter>
</defs>
</svg>
