<svg width="168" height="168" viewBox="0 0 168 168" fill="none" xmlns="http://www.w3.org/2000/svg">
<g filter="url(#filter0_d_980_398)">
<rect x="40" y="36" width="88" height="88" rx="44" fill="white"/>
<path d="M85.25 78.75C85.25 78.4185 85.1183 78.1005 84.8839 77.8661C84.6495 77.6317 84.3315 77.5 84 77.5C83.6685 77.5 83.3505 77.6317 83.1161 77.8661C82.8817 78.1005 82.75 78.4185 82.75 78.75V81.25H80.25C79.9185 81.25 79.6005 81.3817 79.3661 81.6161C79.1317 81.8505 79 82.1685 79 82.5C79 82.8315 79.1317 83.1495 79.3661 83.3839C79.6005 83.6183 79.9185 83.75 80.25 83.75H82.75V86.25C82.75 86.5815 82.8817 86.8995 83.1161 87.1339C83.3505 87.3683 83.6685 87.5 84 87.5C84.3315 87.5 84.6495 87.3683 84.8839 87.1339C85.1183 86.8995 85.25 86.5815 85.25 86.25V83.75H87.75C88.0815 83.75 88.3995 83.6183 88.6339 83.3839C88.8683 83.1495 89 82.8315 89 82.5C89 82.1685 88.8683 81.8505 88.6339 81.6161C88.3995 81.3817 88.0815 81.25 87.75 81.25H85.25V78.75ZM79 65H89C89.3315 65 89.6495 65.1317 89.8839 65.3661C90.1183 65.6005 90.25 65.9185 90.25 66.25V71.25H94C95.3261 71.25 96.5979 71.7768 97.5355 72.7145C98.4732 73.6521 99 74.9239 99 76.25V88.75C99 90.0761 98.4732 91.3479 97.5355 92.2855C96.5979 93.2232 95.3261 93.75 94 93.75H74C72.6739 93.75 71.4021 93.2232 70.4645 92.2855C69.5268 91.3479 69 90.0761 69 88.75V76.25C69 74.9239 69.5268 73.6521 70.4645 72.7145C71.4021 71.7768 72.6739 71.25 74 71.25H77.75V66.25C77.75 65.9185 77.8817 65.6005 78.1161 65.3661C78.3505 65.1317 78.6685 65 79 65ZM87.75 71.25V67.5H80.25V71.25H87.75ZM74 73.75C73.337 73.75 72.7011 74.0134 72.2322 74.4822C71.7634 74.9511 71.5 75.587 71.5 76.25V88.75C71.5 89.413 71.7634 90.0489 72.2322 90.5178C72.7011 90.9866 73.337 91.25 74 91.25H94C94.663 91.25 95.2989 90.9866 95.7678 90.5178C96.2366 90.0489 96.5 89.413 96.5 88.75V76.25C96.5 75.587 96.2366 74.9511 95.7678 74.4822C95.2989 74.0134 94.663 73.75 94 73.75H74Z" fill="#FB4A7B" stroke="#FB4A7B"/>
</g>
<defs>
<filter id="filter0_d_980_398" x="0" y="0" width="168" height="168" filterUnits="userSpaceOnUse" color-interpolation-filters="sRGB">
<feFlood flood-opacity="0" result="BackgroundImageFix"/>
<feColorMatrix in="SourceAlpha" type="matrix" values="0 0 0 0 0 0 0 0 0 0 0 0 0 0 0 0 0 0 127 0" result="hardAlpha"/>
<feOffset dy="4"/>
<feGaussianBlur stdDeviation="20"/>
<feColorMatrix type="matrix" values="0 0 0 0 0.1504 0 0 0 0 0.16096 0 0 0 0 0.1696 0 0 0 0.07 0"/>
<feBlend mode="normal" in2="BackgroundImageFix" result="effect1_dropShadow_980_398"/>
<feBlend mode="normal" in="SourceGraphic" in2="effect1_dropShadow_980_398" result="shape"/>
</filter>
</defs>
</svg>
