<svg width="168" height="168" viewBox="0 0 168 168" fill="none" xmlns="http://www.w3.org/2000/svg">
<g filter="url(#filter0_d_980_392)">
<rect x="40" y="36" width="88" height="88" rx="44" fill="white"/>
<path d="M91.1775 62.5376C91.499 62.6179 91.7755 62.8226 91.9461 63.1067C92.1168 63.3908 92.1676 63.731 92.0875 64.0526L91.4625 66.5526C91.4259 66.7151 91.3572 66.8687 91.2604 67.0043C91.1637 67.1399 91.0408 67.2548 90.899 67.3422C90.7572 67.4296 90.5993 67.4878 90.4347 67.5134C90.2701 67.5389 90.102 67.5313 89.9404 67.491C89.7788 67.4507 89.6268 67.3784 89.4935 67.2786C89.3602 67.1787 89.2482 67.0531 89.164 66.9094C89.0799 66.7656 89.0254 66.6064 89.0037 66.4412C88.9819 66.2761 88.9934 66.1082 89.0375 65.9476L89.6625 63.4476C89.7428 63.1261 89.9475 62.8496 90.2316 62.6789C90.5157 62.5083 90.8559 62.4575 91.1775 62.5376ZM98.635 65.3651C98.7514 65.4812 98.8437 65.6191 98.9068 65.771C98.9698 65.9229 99.0022 66.0857 99.0022 66.2501C99.0022 66.4145 98.9698 66.5773 98.9068 66.7292C98.8437 66.881 98.7514 67.019 98.635 67.1351L96.135 69.6351C96.0188 69.7511 95.8808 69.8432 95.729 69.9059C95.5772 69.9687 95.4146 70.0009 95.2503 70.0008C95.0861 70.0007 94.9235 69.9682 94.7718 69.9052C94.6201 69.8423 94.4823 69.7501 94.3662 69.6338C94.2502 69.5176 94.1581 69.3797 94.0954 69.2279C94.0327 69.0761 94.0004 68.9134 94.0005 68.7492C94.0006 68.585 94.0331 68.4223 94.0961 68.2706C94.159 68.119 94.2513 67.9811 94.3675 67.8651L96.8675 65.3651C97.1019 65.1307 97.4198 64.9991 97.7512 64.9991C98.0827 64.9991 98.4006 65.1307 98.635 65.3651ZM79.71 92.5801C80.3376 93.6237 81.3245 94.4023 82.4855 94.7699C83.6465 95.1375 84.9017 95.0687 86.0156 94.5765C87.1295 94.0843 88.0254 93.2025 88.5353 92.0966C89.0452 90.9907 89.134 89.7368 88.785 88.5701L79.71 92.5801ZM77.41 93.5976L74.915 94.7001C74.2699 94.9859 73.5536 95.0701 72.8598 94.9416C72.1661 94.8131 71.5274 94.4779 71.0275 93.9801L70.0275 92.9801C69.5293 92.4841 69.1928 91.8492 69.0621 91.1585C68.9314 90.4678 69.0125 89.7538 69.295 89.1101L78.9725 67.0876C79.202 66.5678 79.5547 66.1117 80 65.7587C80.4453 65.4057 80.9699 65.1665 81.5283 65.0616C82.0868 64.9568 82.6624 64.9895 83.2054 65.1569C83.7484 65.3243 84.2425 65.6214 84.645 66.0226L97.975 79.3126C98.3766 79.7131 98.6744 80.2055 98.8427 80.7472C99.0109 81.2888 99.0446 81.8633 98.9406 82.4209C98.8367 82.9785 98.5984 83.5023 98.2462 83.9469C97.8941 84.3916 97.4389 84.7436 96.92 84.9726L91.0825 87.5526C91.6995 89.331 91.6253 91.2764 90.8745 93.0025C90.1237 94.7287 88.7513 96.1095 87.0297 96.8706C85.308 97.6318 83.3631 97.7178 81.5811 97.1114C79.799 96.5051 78.3101 95.2508 77.41 93.5976ZM100.25 72.5001H97.75C97.4185 72.5001 97.1005 72.6318 96.8661 72.8662C96.6317 73.1006 96.5 73.4186 96.5 73.7501C96.5 74.0816 96.6317 74.3996 96.8661 74.634C97.1005 74.8684 97.4185 75.0001 97.75 75.0001H100.25C100.581 75.0001 100.899 74.8684 101.134 74.634C101.368 74.3996 101.5 74.0816 101.5 73.7501C101.5 73.4186 101.368 73.1006 101.134 72.8662C100.899 72.6318 100.581 72.5001 100.25 72.5001ZM81.2625 68.0951L71.5825 90.1151C71.5024 90.2972 71.4794 90.4993 71.5165 90.6948C71.5535 90.8902 71.6489 91.0699 71.79 91.2101L72.7925 92.2101C72.9353 92.3521 73.1177 92.4476 73.3158 92.4842C73.5138 92.5208 73.7183 92.4967 73.9025 92.4151L95.9075 82.6851C96.0545 82.6204 96.1835 82.5208 96.2833 82.395C96.3831 82.2691 96.4507 82.1209 96.4803 81.963C96.5098 81.8051 96.5004 81.6424 96.4529 81.489C96.4054 81.3356 96.3211 81.1961 96.2075 81.0826L82.8825 67.7926C82.7678 67.6785 82.6271 67.594 82.4725 67.5463C82.318 67.4985 82.1541 67.489 81.9951 67.5185C81.836 67.548 81.6865 67.6157 81.5593 67.7157C81.4322 67.8156 81.3312 67.945 81.265 68.0926L81.2625 68.0951Z" fill="#FB4A7B" stroke="#FB4A7B"/>
</g>
<defs>
<filter id="filter0_d_980_392" x="0" y="0" width="168" height="168" filterUnits="userSpaceOnUse" color-interpolation-filters="sRGB">
<feFlood flood-opacity="0" result="BackgroundImageFix"/>
<feColorMatrix in="SourceAlpha" type="matrix" values="0 0 0 0 0 0 0 0 0 0 0 0 0 0 0 0 0 0 127 0" result="hardAlpha"/>
<feOffset dy="4"/>
<feGaussianBlur stdDeviation="20"/>
<feColorMatrix type="matrix" values="0 0 0 0 0.1504 0 0 0 0 0.16096 0 0 0 0 0.1696 0 0 0 0.07 0"/>
<feBlend mode="normal" in2="BackgroundImageFix" result="effect1_dropShadow_980_392"/>
<feBlend mode="normal" in="SourceGraphic" in2="effect1_dropShadow_980_392" result="shape"/>
</filter>
</defs>
</svg>
