<svg width="202" height="40" viewBox="0 0 202 40" fill="none" xmlns="http://www.w3.org/2000/svg">
<path d="M20.9983 0H22.0981C23.345 0.0591304 24.5831 0.251014 25.7937 0.545507C29.9272 1.48696 33.6424 3.99304 36.0607 7.37971C37.1551 8.93797 38.0565 10.64 38.5689 12.4667C39.9458 17.2603 39.067 22.6162 36.2305 26.7577C35.2361 28.2771 33.8396 29.6255 32.0732 30.2499C30.6534 30.7519 29.1157 30.8968 27.6162 30.7658C27.6048 29.4841 27.5727 28.1994 27.637 26.9188C28.3692 26.8551 29.1104 26.8678 29.8342 26.7299C30.4044 26.6203 30.9483 26.3641 31.3719 25.9745C32.2865 25.0522 32.2972 23.4464 31.4321 22.4904C30.9853 22.0012 30.3085 21.8041 29.6674 21.6951C28.7738 21.5652 27.867 21.6249 26.968 21.6429C26.8589 24.6777 27.0252 27.7154 26.8983 30.749C25.4767 30.8435 24.0487 30.8585 22.6277 30.7519C22.5306 26.4933 22.6218 22.233 22.6116 17.9733C23.3266 17.9368 24.0427 17.949 24.7576 17.927C26.0856 17.9356 27.4142 17.9084 28.7416 17.9507C29.9439 17.9942 31.1581 18.1519 32.2805 18.5907C33.4309 19.0023 34.3794 19.7797 35.372 20.4539C35.4453 19.3119 35.4095 18.1623 35.2469 17.0284C34.6493 12.8267 32.4706 8.90029 29.354 5.95826C26.85 3.58261 23.6989 1.81797 20.2762 1.07188C19.4082 0.889855 18.524 0.798841 17.6512 0.642899C18.7188 0.243478 19.8586 0.0533333 20.9983 0Z" fill="#FB4A7B"/>
<path d="M11.8418 3.43708C14.7754 2.41563 18.0158 2.18549 21.0501 2.90375C23.0138 3.33563 24.7838 4.31766 26.4848 5.32983C28.5438 6.70433 30.265 8.55592 31.4631 10.6881C32.3979 12.3664 33.0222 14.2266 33.1592 16.1362C32.3687 15.2243 31.6978 14.222 30.9525 13.2759C30.4115 12.5739 29.8009 11.9252 29.1419 11.3275C26.5015 8.85737 23.1079 7.10317 19.4695 6.57447C16.8844 6.2023 14.2237 6.46607 11.7334 7.21621C9.50694 7.88694 7.40504 8.93505 5.52775 10.2765C4.17415 11.258 3.06124 12.5014 1.83513 13.6203C2.46367 11.6597 3.35436 9.74317 4.72405 8.1623C6.61027 6.00926 9.10717 4.38491 11.8418 3.43708Z" fill="#FB4A7B"/>
<path d="M38.2496 7.4668C39.3094 8.07028 40.0142 9.07491 40.7411 10.0065C42.8525 12.8222 43.8725 16.3091 44 19.7677V21.4053C43.9398 24.0778 43.0801 26.654 42.0578 29.1097C40.4051 32.7416 37.4965 35.8622 33.8289 37.6424C31.727 38.5688 29.5715 39.479 27.264 39.7694C26.514 39.8935 25.7561 39.9648 24.9971 40.0001H23.7811C21.236 39.8964 18.7105 39.3201 16.3792 38.3248C18.3381 38.21 20.3292 38.341 22.2548 37.9045C25.606 37.2007 28.8714 35.9387 31.6436 33.952C33.0752 33.0175 34.3448 31.8558 35.4214 30.5474C36.8048 28.8732 37.8861 26.9752 38.7018 24.9822C40.5981 20.4314 40.874 15.2482 39.4048 10.5456C39.0819 9.49752 38.554 8.52129 38.2496 7.4668Z" fill="#FB4A7B"/>
<path d="M6.12234 17.9889C7.56174 17.9072 9.0059 17.9089 10.4453 17.9884C10.4393 18.1379 10.4292 18.2869 10.428 18.4365C10.4268 20.8324 10.4304 23.2289 10.4262 25.6249C10.3833 26.1826 10.4661 26.7489 10.3434 27.3008C10.0604 28.6782 9.03569 29.8533 7.75358 30.4684C7.02554 30.8278 6.20396 30.9449 5.39907 31C4.28258 31.0684 3.11308 30.9182 2.13422 30.3617C1.63674 30.0695 1.17561 29.7003 0.849126 29.2278C0.252158 28.3785 0.0287421 27.3321 0.00133638 26.3171C0.00967724 23.5356 -0.0141538 20.753 0.0150392 17.9716C1.05288 17.9211 2.09251 17.9495 3.13154 17.9414C3.50807 17.9495 3.8852 17.9588 4.26173 17.9739C4.26352 20.2927 4.26471 22.6116 4.24088 24.9298C4.21943 25.64 4.32012 26.3472 4.44702 27.0446C4.94568 27.0324 5.44316 27.073 5.94182 27.0417C6.06693 26.422 6.1569 25.7918 6.13843 25.1582C6.10745 22.7692 6.13187 20.3785 6.12234 17.9889Z" fill="#FB4A7B"/>
<path d="M11.694 17.971C13.6607 17.9357 15.6279 17.9044 17.5946 17.9519C18.7552 18.0145 19.9801 18.309 20.8368 19.1189C21.3343 19.5606 21.5553 20.2232 21.5821 20.8638C21.5917 21.309 21.597 21.771 21.4165 22.189C21.149 22.8354 20.6402 23.3409 20.2279 23.8992C20.9572 24.3583 21.7269 24.8748 22.0844 25.6771C22.452 26.5855 22.4299 27.6366 22.0296 28.5316C21.6399 29.3983 20.8511 30.0592 19.9568 30.4041C18.9101 30.8035 17.7632 30.8377 16.6545 30.7838C16.6277 29.669 16.6247 28.5531 16.7003 27.44C17.3277 27.3647 17.9515 27.2696 18.5717 27.1519C18.5282 26.8615 18.4847 26.571 18.4477 26.28C17.8609 26.229 17.2747 26.1728 16.6878 26.1252C16.6324 25.0997 16.5776 24.069 16.6729 23.0441C16.9655 22.7021 17.4212 22.5861 17.8007 22.3676C17.8329 22.1948 17.8687 22.0226 17.9044 21.851C17.2967 21.6806 16.6622 21.607 16.0307 21.6081C15.9294 24.6597 16.095 27.7148 15.9526 30.7658C14.5442 30.8458 13.1322 30.84 11.7244 30.7508C11.6785 28.5015 11.6625 26.2516 11.6642 24.0018C11.6684 23.3432 11.6523 22.6847 11.6797 22.0267C11.669 20.6748 11.6916 19.3229 11.694 17.971Z" fill="#FB4A7B"/>
<path d="M61.2237 6.40909H63.9915V14.9105C63.9915 15.8651 63.7635 16.7003 63.3075 17.4162C62.8558 18.1321 62.223 18.6903 61.4091 19.0909C60.5952 19.4872 59.647 19.6854 58.5646 19.6854C57.478 19.6854 56.5277 19.4872 55.7138 19.0909C54.8999 18.6903 54.267 18.1321 53.8153 17.4162C53.3636 16.7003 53.1378 15.8651 53.1378 14.9105V6.40909H55.9055V14.674C55.9055 15.1726 56.0142 15.6158 56.2315 16.0036C56.4531 16.3913 56.7642 16.696 57.1648 16.9176C57.5653 17.1392 58.032 17.25 58.5646 17.25C59.1016 17.25 59.5682 17.1392 59.9645 16.9176C60.3651 16.696 60.674 16.3913 60.8913 16.0036C61.1129 15.6158 61.2237 15.1726 61.2237 14.674V6.40909ZM66.2686 19.5V6.40909H71.5101C72.4732 6.40909 73.2765 6.55185 73.9199 6.83736C74.5634 7.12287 75.0471 7.51918 75.3709 8.02628C75.6948 8.52912 75.8567 9.10866 75.8567 9.76491C75.8567 10.2763 75.7544 10.7259 75.5499 11.1136C75.3453 11.4972 75.0641 11.8125 74.7061 12.0597C74.3525 12.3026 73.9476 12.4751 73.4917 12.5774V12.7053C73.9902 12.7266 74.4569 12.8672 74.8915 13.1271C75.3304 13.3871 75.6863 13.7514 75.959 14.2202C76.2317 14.6847 76.3681 15.2386 76.3681 15.8821C76.3681 16.5767 76.1955 17.1967 75.8503 17.7422C75.5094 18.2834 75.0044 18.7116 74.3354 19.027C73.6664 19.3423 72.8418 19.5 71.8617 19.5H66.2686ZM69.0364 17.2372H71.2928C72.0641 17.2372 72.6266 17.0902 72.9803 16.7962C73.334 16.4979 73.5108 16.1016 73.5108 15.6072C73.5108 15.245 73.4235 14.9254 73.2488 14.6484C73.074 14.3714 72.8248 14.1541 72.5009 13.9964C72.1813 13.8388 71.7999 13.7599 71.3567 13.7599H69.0364V17.2372ZM69.0364 11.8871H71.0882C71.4675 11.8871 71.8042 11.821 72.0982 11.6889C72.3965 11.5526 72.6309 11.3608 72.8013 11.1136C72.976 10.8665 73.0634 10.5703 73.0634 10.2251C73.0634 9.75213 72.8951 9.37074 72.5584 9.08097C72.226 8.79119 71.753 8.64631 71.1394 8.64631H69.0364V11.8871ZM82.8097 19.5H78.169V6.40909H82.848C84.1648 6.40909 85.2983 6.67116 86.2486 7.19531C87.1989 7.7152 87.9297 8.46307 88.4411 9.43892C88.9567 10.4148 89.2145 11.5824 89.2145 12.9418C89.2145 14.3054 88.9567 15.4773 88.4411 16.4574C87.9297 17.4375 87.1946 18.1896 86.2358 18.7138C85.2812 19.2379 84.1392 19.5 82.8097 19.5ZM80.9368 17.1286H82.6946C83.5128 17.1286 84.201 16.9837 84.7592 16.6939C85.3217 16.3999 85.7436 15.946 86.0249 15.3324C86.3104 14.7145 86.4531 13.9176 86.4531 12.9418C86.4531 11.9744 86.3104 11.1839 86.0249 10.5703C85.7436 9.95668 85.3239 9.50497 84.7656 9.2152C84.2074 8.92543 83.5192 8.78054 82.701 8.78054H80.9368V17.1286ZM104.111 10.6406C104.022 10.3295 103.896 10.0547 103.734 9.81605C103.572 9.57315 103.374 9.36861 103.14 9.20241C102.909 9.03196 102.645 8.90199 102.347 8.8125C102.053 8.72301 101.727 8.67827 101.369 8.67827C100.7 8.67827 100.112 8.84446 99.6048 9.17685C99.1019 9.50923 98.7099 9.9929 98.4286 10.6278C98.1474 11.2585 98.0067 12.0298 98.0067 12.9418C98.0067 13.8537 98.1452 14.6293 98.4222 15.2685C98.6992 15.9077 99.0913 16.3956 99.5984 16.7322C100.105 17.0646 100.704 17.2308 101.395 17.2308C102.021 17.2308 102.556 17.12 102.999 16.8984C103.446 16.6726 103.787 16.3551 104.022 15.946C104.26 15.5369 104.38 15.0533 104.38 14.495L104.942 14.5781H101.567V12.4943H107.045V14.1435C107.045 15.294 106.802 16.2827 106.316 17.1094C105.831 17.9318 105.162 18.5668 104.309 19.0142C103.457 19.4574 102.481 19.679 101.382 19.679C100.154 19.679 99.0763 19.4084 98.1474 18.8672C97.2184 18.3217 96.494 17.5483 95.9741 16.5469C95.4585 15.5412 95.2006 14.348 95.2006 12.9673C95.2006 11.9062 95.354 10.9602 95.6609 10.1293C95.9719 9.29403 96.4066 8.58665 96.9648 8.0071C97.5231 7.42756 98.1729 6.98651 98.9144 6.68395C99.6559 6.38139 100.459 6.23011 101.324 6.23011C102.066 6.23011 102.756 6.33878 103.395 6.55611C104.034 6.76918 104.601 7.07173 105.096 7.46378C105.594 7.85582 106.001 8.32244 106.316 8.86364C106.632 9.40057 106.834 9.9929 106.924 10.6406H104.111ZM109.124 19.5V6.40909H114.289C115.278 6.40909 116.121 6.58594 116.82 6.93963C117.523 7.28906 118.058 7.78551 118.425 8.42898C118.795 9.06818 118.981 9.82031 118.981 10.6854C118.981 11.5547 118.793 12.3026 118.418 12.929C118.043 13.5511 117.5 14.0284 116.788 14.3608C116.081 14.6932 115.224 14.8594 114.219 14.8594H110.76V12.6349H113.771C114.3 12.6349 114.738 12.5625 115.088 12.4176C115.437 12.2727 115.697 12.0554 115.868 11.7656C116.042 11.4759 116.13 11.1158 116.13 10.6854C116.13 10.2507 116.042 9.88423 115.868 9.58594C115.697 9.28764 115.435 9.06179 115.081 8.90838C114.732 8.75071 114.291 8.67188 113.758 8.67188H111.892V19.5H109.124ZM116.194 13.5426L119.447 19.5H116.392L113.209 13.5426H116.194ZM132.966 12.9545C132.966 14.3821 132.696 15.5966 132.155 16.598C131.618 17.5994 130.885 18.3643 129.956 18.8928C129.031 19.4169 127.991 19.679 126.836 19.679C125.673 19.679 124.629 19.4148 123.704 18.8864C122.78 18.358 122.049 17.593 121.512 16.5916C120.975 15.5902 120.706 14.3778 120.706 12.9545C120.706 11.527 120.975 10.3125 121.512 9.31108C122.049 8.30966 122.78 7.54687 123.704 7.02273C124.629 6.49432 125.673 6.23011 126.836 6.23011C127.991 6.23011 129.031 6.49432 129.956 7.02273C130.885 7.54687 131.618 8.30966 132.155 9.31108C132.696 10.3125 132.966 11.527 132.966 12.9545ZM130.16 12.9545C130.16 12.0298 130.022 11.25 129.745 10.6151C129.472 9.98011 129.086 9.49858 128.588 9.17045C128.089 8.84233 127.506 8.67827 126.836 8.67827C126.167 8.67827 125.584 8.84233 125.085 9.17045C124.586 9.49858 124.199 9.98011 123.922 10.6151C123.649 11.25 123.513 12.0298 123.513 12.9545C123.513 13.8793 123.649 14.6591 123.922 15.294C124.199 15.929 124.586 16.4105 125.085 16.7386C125.584 17.0668 126.167 17.2308 126.836 17.2308C127.506 17.2308 128.089 17.0668 128.588 16.7386C129.086 16.4105 129.472 15.929 129.745 15.294C130.022 14.6591 130.16 13.8793 130.16 12.9545ZM143.103 6.40909H145.87V14.9105C145.87 15.8651 145.642 16.7003 145.186 17.4162C144.735 18.1321 144.102 18.6903 143.288 19.0909C142.474 19.4872 141.526 19.6854 140.444 19.6854C139.357 19.6854 138.407 19.4872 137.593 19.0909C136.779 18.6903 136.146 18.1321 135.694 17.4162C135.243 16.7003 135.017 15.8651 135.017 14.9105V6.40909H137.784V14.674C137.784 15.1726 137.893 15.6158 138.11 16.0036C138.332 16.3913 138.643 16.696 139.044 16.9176C139.444 17.1392 139.911 17.25 140.444 17.25C140.98 17.25 141.447 17.1392 141.843 16.9176C142.244 16.696 142.553 16.3913 142.77 16.0036C142.992 15.6158 143.103 15.1726 143.103 14.674V6.40909ZM148.148 19.5V6.40909H153.312C154.305 6.40909 155.151 6.59872 155.85 6.97798C156.549 7.35298 157.081 7.875 157.448 8.54403C157.819 9.20881 158.004 9.97585 158.004 10.8452C158.004 11.7145 157.817 12.4815 157.442 13.1463C157.067 13.8111 156.523 14.3288 155.812 14.6996C155.104 15.0703 154.248 15.2557 153.242 15.2557H149.95V13.0376H152.795C153.327 13.0376 153.766 12.946 154.111 12.7628C154.461 12.5753 154.721 12.3175 154.891 11.9893C155.066 11.657 155.153 11.2756 155.153 10.8452C155.153 10.4105 155.066 10.0312 154.891 9.70739C154.721 9.37926 154.461 9.12571 154.111 8.94673C153.762 8.76349 153.319 8.67188 152.782 8.67188H150.915V19.5H148.148Z" fill="#FB4A7B"/>
<path d="M60.331 29.7173H58.7372C58.6918 29.456 58.608 29.2244 58.4858 29.0227C58.3636 28.8182 58.2116 28.6449 58.0298 28.5028C57.848 28.3608 57.6406 28.2543 57.4077 28.1832C57.1776 28.1094 56.929 28.0724 56.6619 28.0724C56.1875 28.0724 55.767 28.1918 55.4006 28.4304C55.0341 28.6662 54.7472 29.0128 54.5398 29.4702C54.3324 29.9247 54.2287 30.4801 54.2287 31.1364C54.2287 31.804 54.3324 32.3665 54.5398 32.8239C54.75 33.2784 55.0369 33.6222 55.4006 33.8551C55.767 34.0852 56.1861 34.2003 56.6577 34.2003C56.919 34.2003 57.1634 34.1662 57.3906 34.098C57.6207 34.027 57.8267 33.9233 58.0085 33.7869C58.1932 33.6506 58.348 33.483 58.473 33.2841C58.6009 33.0852 58.6889 32.858 58.7372 32.6023L60.331 32.6108C60.2713 33.0256 60.142 33.4148 59.9432 33.7784C59.7472 34.142 59.4901 34.4631 59.1719 34.7415C58.8537 35.017 58.4815 35.233 58.0554 35.3892C57.6293 35.5426 57.1563 35.6193 56.6364 35.6193C55.8693 35.6193 55.1847 35.4418 54.5824 35.0866C53.9801 34.7315 53.5057 34.2188 53.1591 33.5483C52.8125 32.8778 52.6392 32.0739 52.6392 31.1364C52.6392 30.196 52.8139 29.392 53.1634 28.7244C53.5128 28.054 53.9886 27.5412 54.5909 27.1861C55.1932 26.831 55.875 26.6534 56.6364 26.6534C57.1222 26.6534 57.5739 26.7216 57.9915 26.858C58.4091 26.9943 58.7813 27.1946 59.108 27.4588C59.4347 27.7202 59.7031 28.0412 59.9134 28.4219C60.1264 28.7997 60.2656 29.2315 60.331 29.7173ZM61.7106 35.5V28.9545H67.2376V35.5H65.7504V30.2202H63.185V35.5H61.7106ZM71.679 35.6278C71.0398 35.6278 70.4858 35.4872 70.017 35.206C69.5483 34.9247 69.1847 34.5312 68.9261 34.0256C68.6705 33.5199 68.5426 32.929 68.5426 32.2528C68.5426 31.5767 68.6705 30.9844 68.9261 30.4759C69.1847 29.9673 69.5483 29.5724 70.017 29.2912C70.4858 29.0099 71.0398 28.8693 71.679 28.8693C72.3182 28.8693 72.8722 29.0099 73.3409 29.2912C73.8097 29.5724 74.1719 29.9673 74.4276 30.4759C74.6861 30.9844 74.8153 31.5767 74.8153 32.2528C74.8153 32.929 74.6861 33.5199 74.4276 34.0256C74.1719 34.5312 73.8097 34.9247 73.3409 35.206C72.8722 35.4872 72.3182 35.6278 71.679 35.6278ZM71.6875 34.392C72.0341 34.392 72.3239 34.2969 72.5568 34.1065C72.7898 33.9134 72.9631 33.6548 73.0767 33.331C73.1932 33.0071 73.2514 32.6463 73.2514 32.2486C73.2514 31.848 73.1932 31.4858 73.0767 31.1619C72.9631 30.8352 72.7898 30.5753 72.5568 30.3821C72.3239 30.1889 72.0341 30.0923 71.6875 30.0923C71.3324 30.0923 71.0369 30.1889 70.8011 30.3821C70.5682 30.5753 70.3935 30.8352 70.277 31.1619C70.1634 31.4858 70.1065 31.848 70.1065 32.2486C70.1065 32.6463 70.1634 33.0071 70.277 33.331C70.3935 33.6548 70.5682 33.9134 70.8011 34.1065C71.0369 34.2969 71.3324 34.392 71.6875 34.392ZM80.6204 31.5881V32.8537H77.1346V31.5881H80.6204ZM77.6119 28.9545V35.5H76.1246V28.9545H77.6119ZM81.6303 28.9545V35.5H80.1474V28.9545H81.6303ZM88.4368 26.5341L88.9737 27.5312C88.7834 27.696 88.5703 27.8153 88.3345 27.8892C88.0987 27.9631 87.8217 28.0114 87.5036 28.0341C87.1882 28.054 86.8132 28.0682 86.3786 28.0767C85.8899 28.0881 85.4908 28.1804 85.1811 28.3537C84.8714 28.527 84.6342 28.7898 84.4695 29.142C84.3047 29.4915 84.1967 29.9375 84.1456 30.4801H84.218C84.4226 30.0795 84.7095 29.7741 85.0788 29.5639C85.4482 29.3537 85.8814 29.2486 86.3786 29.2486C86.9212 29.2486 87.3999 29.3707 87.8146 29.6151C88.2322 29.8565 88.5575 30.2074 88.7905 30.6676C89.0263 31.1278 89.1442 31.6847 89.1442 32.3381C89.1442 33.0114 89.0178 33.5952 88.7649 34.0895C88.5121 34.581 88.1527 34.9602 87.6868 35.2273C87.2237 35.4943 86.674 35.6278 86.0376 35.6278C85.4041 35.6278 84.853 35.4901 84.3842 35.2145C83.9183 34.9361 83.5575 34.5256 83.3018 33.983C83.049 33.4375 82.9226 32.7656 82.9226 31.9673V31.3793C82.9226 29.8395 83.2095 28.6903 83.7834 27.9318C84.3572 27.1733 85.2081 26.7869 86.3359 26.7727C86.6712 26.767 86.9709 26.7656 87.2351 26.7685C87.5021 26.7713 87.7351 26.7585 87.9339 26.7301C88.1328 26.7017 88.3004 26.6364 88.4368 26.5341ZM86.0462 34.392C86.3615 34.392 86.6342 34.3111 86.8643 34.1491C87.0945 33.9844 87.2706 33.7514 87.3928 33.4503C87.5178 33.1491 87.5803 32.7926 87.5803 32.3807C87.5803 31.9744 87.5178 31.6293 87.3928 31.3452C87.2678 31.0582 87.0902 30.8395 86.8601 30.6889C86.63 30.5384 86.3558 30.4631 86.0376 30.4631C85.799 30.4631 85.5845 30.5057 85.3942 30.5909C85.2038 30.6761 85.0419 30.8011 84.9084 30.9659C84.7749 31.1307 84.6726 31.331 84.6016 31.5668C84.5305 31.8026 84.4922 32.0739 84.4865 32.3807C84.4865 32.9972 84.6257 33.4872 84.9041 33.8509C85.1825 34.2116 85.5632 34.392 86.0462 34.392ZM93.3118 35.6278C92.6726 35.6278 92.1186 35.4872 91.6499 35.206C91.1811 34.9247 90.8175 34.5312 90.5589 34.0256C90.3033 33.5199 90.1754 32.929 90.1754 32.2528C90.1754 31.5767 90.3033 30.9844 90.5589 30.4759C90.8175 29.9673 91.1811 29.5724 91.6499 29.2912C92.1186 29.0099 92.6726 28.8693 93.3118 28.8693C93.951 28.8693 94.505 29.0099 94.9737 29.2912C95.4425 29.5724 95.8047 29.9673 96.0604 30.4759C96.3189 30.9844 96.4482 31.5767 96.4482 32.2528C96.4482 32.929 96.3189 33.5199 96.0604 34.0256C95.8047 34.5312 95.4425 34.9247 94.9737 35.206C94.505 35.4872 93.951 35.6278 93.3118 35.6278ZM93.3203 34.392C93.6669 34.392 93.9567 34.2969 94.1896 34.1065C94.4226 33.9134 94.5959 33.6548 94.7095 33.331C94.826 33.0071 94.8842 32.6463 94.8842 32.2486C94.8842 31.848 94.826 31.4858 94.7095 31.1619C94.5959 30.8352 94.4226 30.5753 94.1896 30.3821C93.9567 30.1889 93.6669 30.0923 93.3203 30.0923C92.9652 30.0923 92.6697 30.1889 92.4339 30.3821C92.201 30.5753 92.0263 30.8352 91.9098 31.1619C91.7962 31.4858 91.7393 31.848 91.7393 32.2486C91.7393 32.6463 91.7962 33.0071 91.9098 33.331C92.0263 33.6548 92.201 33.9134 92.4339 34.1065C92.6697 34.2969 92.9652 34.392 93.3203 34.392ZM102.253 31.5881V32.8537H98.7674V31.5881H102.253ZM99.2447 28.9545V35.5H97.7575V28.9545H99.2447ZM103.263 28.9545V35.5H101.78V28.9545H103.263ZM104.244 37.4006V34.2301H104.764C104.903 34.1222 105.02 33.9759 105.114 33.7912C105.207 33.6037 105.284 33.3835 105.344 33.1307C105.406 32.875 105.457 32.5895 105.497 32.2741C105.537 31.956 105.572 31.6136 105.604 31.2472L105.791 28.9545H110.521V34.2301H111.536V37.4006H110.044V35.5H105.761V37.4006H104.244ZM106.349 34.2301H109.047V30.1989H107.129L107.027 31.2472C106.97 31.9403 106.895 32.5341 106.801 33.0284C106.707 33.5227 106.557 33.9233 106.349 34.2301ZM115.664 35.5V28.9545H118.412C119.188 28.9545 119.8 29.1094 120.249 29.419C120.701 29.7287 120.926 30.1605 120.926 30.7145C120.926 31.081 120.799 31.3807 120.543 31.6136C120.29 31.8437 119.945 31.9986 119.507 32.0781C119.851 32.1065 120.152 32.1932 120.411 32.3381C120.672 32.483 120.877 32.6733 121.025 32.9091C121.172 33.1449 121.246 33.4162 121.246 33.723C121.246 34.0838 121.151 34.3977 120.961 34.6648C120.773 34.929 120.499 35.1349 120.138 35.2827C119.78 35.4276 119.346 35.5 118.834 35.5H115.664ZM117.108 34.2855H118.834C119.118 34.2855 119.341 34.2187 119.503 34.0852C119.665 33.9489 119.746 33.7642 119.746 33.5312C119.746 33.2614 119.665 33.0497 119.503 32.8963C119.341 32.7401 119.118 32.6619 118.834 32.6619H117.108V34.2855ZM117.108 31.6648H118.442C118.652 31.6648 118.833 31.6349 118.983 31.5753C119.134 31.5128 119.249 31.4261 119.328 31.3153C119.408 31.2017 119.448 31.0668 119.448 30.9105C119.448 30.6861 119.355 30.5099 119.171 30.3821C118.989 30.2543 118.736 30.1903 118.412 30.1903H117.108V31.6648ZM126.344 35.6193V34.2898H126.842C127.067 34.2898 127.251 34.2571 127.396 34.1918C127.541 34.1264 127.658 34.0327 127.746 33.9105C127.837 33.7884 127.912 33.6463 127.972 33.4844L128.087 33.1903L124.967 26.7727H126.621L128.794 31.4432L130.673 26.7727H132.301L129.293 33.8892C129.153 34.196 128.993 34.4815 128.811 34.7457C128.629 35.0071 128.392 35.2187 128.099 35.3807C127.81 35.5398 127.432 35.6193 126.966 35.6193H126.344ZM132.997 33.706H134.527C134.541 33.9503 134.65 34.1392 134.855 34.2727C135.059 34.4062 135.325 34.473 135.652 34.473C135.984 34.473 136.264 34.4006 136.491 34.2557C136.721 34.108 136.836 33.8849 136.836 33.5866C136.836 33.4105 136.792 33.2557 136.704 33.1222C136.616 32.9858 136.493 32.8807 136.333 32.8068C136.174 32.733 135.987 32.696 135.771 32.696H134.77V31.6009H135.771C136.092 31.6009 136.335 31.527 136.5 31.3793C136.667 31.2315 136.751 31.0455 136.751 30.821C136.751 30.5795 136.663 30.3835 136.487 30.233C136.314 30.0824 136.074 30.0071 135.767 30.0071C135.46 30.0071 135.204 30.0767 135 30.2159C134.798 30.3551 134.693 30.5341 134.684 30.7528H133.163C133.169 30.3722 133.282 30.0412 133.504 29.7599C133.728 29.4787 134.029 29.2599 134.407 29.1037C134.788 28.9474 135.217 28.8693 135.694 28.8693C136.206 28.8693 136.647 28.946 137.02 29.0994C137.392 29.2528 137.679 29.4673 137.88 29.7429C138.082 30.0156 138.183 30.3366 138.183 30.706C138.183 31.0611 138.072 31.3551 137.85 31.5881C137.629 31.8182 137.331 31.983 136.956 32.0824V32.1506C137.214 32.1648 137.447 32.2386 137.654 32.3722C137.862 32.5028 138.027 32.6804 138.149 32.9048C138.271 33.1293 138.332 33.3892 138.332 33.6847C138.332 34.0852 138.217 34.4318 137.987 34.7244C137.757 35.0142 137.44 35.2372 137.037 35.3935C136.636 35.5497 136.177 35.6278 135.66 35.6278C135.157 35.6278 134.707 35.5526 134.309 35.402C133.914 35.2486 133.6 35.0284 133.368 34.7415C133.135 34.4545 133.011 34.1094 132.997 33.706ZM144.792 26.5341L145.329 27.5312C145.139 27.696 144.926 27.8153 144.69 27.8892C144.454 27.9631 144.177 28.0114 143.859 28.0341C143.544 28.054 143.169 28.0682 142.734 28.0767C142.245 28.0881 141.846 28.1804 141.537 28.3537C141.227 28.527 140.99 28.7898 140.825 29.142C140.66 29.4915 140.552 29.9375 140.501 30.4801H140.574C140.778 30.0795 141.065 29.7741 141.434 29.5639C141.804 29.3537 142.237 29.2486 142.734 29.2486C143.277 29.2486 143.755 29.3707 144.17 29.6151C144.588 29.8565 144.913 30.2074 145.146 30.6676C145.382 31.1278 145.5 31.6847 145.5 32.3381C145.5 33.0114 145.373 33.5952 145.12 34.0895C144.868 34.581 144.508 34.9602 144.042 35.2273C143.579 35.4943 143.029 35.6278 142.393 35.6278C141.76 35.6278 141.208 35.4901 140.74 35.2145C140.274 34.9361 139.913 34.5256 139.657 33.983C139.404 33.4375 139.278 32.7656 139.278 31.9673V31.3793C139.278 29.8395 139.565 28.6903 140.139 27.9318C140.713 27.1733 141.564 26.7869 142.691 26.7727C143.027 26.767 143.326 26.7656 143.591 26.7685C143.858 26.7713 144.091 26.7585 144.289 26.7301C144.488 26.7017 144.656 26.6364 144.792 26.5341ZM142.402 34.392C142.717 34.392 142.99 34.3111 143.22 34.1491C143.45 33.9844 143.626 33.7514 143.748 33.4503C143.873 33.1491 143.936 32.7926 143.936 32.3807C143.936 31.9744 143.873 31.6293 143.748 31.3452C143.623 31.0582 143.446 30.8395 143.216 30.6889C142.985 30.5384 142.711 30.4631 142.393 30.4631C142.154 30.4631 141.94 30.5057 141.75 30.5909C141.559 30.6761 141.397 30.8011 141.264 30.9659C141.13 31.1307 141.028 31.331 140.957 31.5668C140.886 31.8026 140.848 32.0739 140.842 32.3807C140.842 32.9972 140.981 33.4872 141.26 33.8509C141.538 34.2116 141.919 34.392 142.402 34.392ZM149.71 35.6278C149.054 35.6278 148.487 35.4915 148.01 35.2188C147.535 34.9432 147.17 34.554 146.914 34.0511C146.659 33.5455 146.531 32.9503 146.531 32.2656C146.531 31.5923 146.659 31.0014 146.914 30.4929C147.173 29.9815 147.534 29.5838 147.997 29.2997C148.46 29.0128 149.004 28.8693 149.629 28.8693C150.032 28.8693 150.413 28.9347 150.771 29.0653C151.132 29.1932 151.45 29.392 151.725 29.6619C152.004 29.9318 152.223 30.2756 152.382 30.6932C152.541 31.108 152.62 31.6023 152.62 32.1761V32.6491H147.255V31.6094H151.142C151.139 31.3139 151.075 31.0511 150.95 30.821C150.825 30.5881 150.65 30.4048 150.426 30.2713C150.204 30.1378 149.946 30.071 149.65 30.071C149.335 30.071 149.058 30.1477 148.819 30.3011C148.581 30.4517 148.395 30.6506 148.261 30.8977C148.13 31.142 148.064 31.4105 148.061 31.7031V32.6108C148.061 32.9915 148.13 33.3182 148.27 33.5909C148.409 33.8608 148.603 34.0682 148.853 34.2131C149.103 34.3551 149.396 34.4261 149.731 34.4261C149.956 34.4261 150.159 34.3949 150.341 34.3324C150.522 34.267 150.68 34.1719 150.814 34.0469C150.947 33.9219 151.048 33.767 151.116 33.5824L152.556 33.7443C152.466 34.125 152.292 34.4574 152.037 34.7415C151.784 35.0227 151.46 35.2415 151.065 35.3977C150.67 35.5511 150.218 35.6278 149.71 35.6278ZM153.925 35.5V28.9545H155.468V31.5966H156.031L157.999 28.9545H159.857L157.433 32.1676L159.883 35.5H158.016L156.222 33.0327H155.468V35.5H153.925ZM162.245 33.4119L164.865 28.9545H166.451V35.5H164.959V31.0384L162.347 35.5H160.757V28.9545H162.245V33.4119ZM170.89 35.6278C170.237 35.6278 169.675 35.4844 169.207 35.1974C168.741 34.9105 168.381 34.5142 168.129 34.0085C167.879 33.5 167.754 32.9148 167.754 32.2528C167.754 31.5881 167.881 31.0014 168.137 30.4929C168.393 29.9815 168.754 29.5838 169.219 29.2997C169.688 29.0128 170.242 28.8693 170.881 28.8693C171.413 28.8693 171.883 28.9673 172.292 29.1634C172.704 29.3565 173.032 29.6307 173.276 29.9858C173.521 30.3381 173.66 30.75 173.694 31.2216H172.219C172.16 30.9062 172.018 30.6435 171.793 30.4332C171.572 30.2202 171.275 30.1136 170.903 30.1136C170.587 30.1136 170.31 30.1989 170.072 30.3693C169.833 30.5369 169.647 30.7784 169.513 31.0938C169.383 31.4091 169.317 31.7869 169.317 32.2273C169.317 32.6733 169.383 33.0568 169.513 33.3778C169.644 33.696 169.827 33.9418 170.063 34.1151C170.302 34.2855 170.582 34.3707 170.903 34.3707C171.13 34.3707 171.333 34.3281 171.512 34.2429C171.694 34.1548 171.846 34.0284 171.968 33.8636C172.09 33.6989 172.174 33.4986 172.219 33.2628H173.694C173.657 33.7259 173.521 34.1364 173.285 34.4943C173.049 34.8494 172.728 35.1278 172.322 35.3295C171.915 35.5284 171.438 35.6278 170.89 35.6278ZM174.485 30.2202V28.9545H180.213V30.2202H178.095V35.5H176.603V30.2202H174.485ZM183.055 35.6321C182.64 35.6321 182.267 35.5582 181.934 35.4105C181.605 35.2599 181.343 35.0384 181.15 34.7457C180.96 34.4531 180.865 34.0923 180.865 33.6634C180.865 33.294 180.933 32.9886 181.069 32.7472C181.206 32.5057 181.392 32.3125 181.627 32.1676C181.863 32.0227 182.129 31.9134 182.424 31.8395C182.723 31.7628 183.031 31.7074 183.349 31.6733C183.733 31.6335 184.044 31.598 184.282 31.5668C184.521 31.5327 184.694 31.4815 184.802 31.4134C184.913 31.3423 184.968 31.233 184.968 31.0852V31.0597C184.968 30.7386 184.873 30.4901 184.683 30.3139C184.493 30.1378 184.218 30.0497 183.86 30.0497C183.483 30.0497 183.183 30.1321 182.961 30.2969C182.743 30.4616 182.595 30.6562 182.518 30.8807L181.078 30.6761C181.191 30.2784 181.379 29.946 181.64 29.679C181.902 29.4091 182.221 29.2074 182.599 29.0739C182.977 28.9375 183.395 28.8693 183.852 28.8693C184.167 28.8693 184.481 28.9062 184.794 28.9801C185.106 29.054 185.392 29.1761 185.65 29.3466C185.909 29.5142 186.116 29.7429 186.272 30.0327C186.431 30.3224 186.511 30.6847 186.511 31.1193V35.5H185.028V34.6009H184.977C184.883 34.7827 184.751 34.9531 184.581 35.1122C184.413 35.2685 184.201 35.3949 183.946 35.4915C183.693 35.5852 183.396 35.6321 183.055 35.6321ZM183.456 34.4986C183.765 34.4986 184.034 34.4375 184.261 34.3153C184.488 34.1903 184.663 34.0256 184.785 33.821C184.91 33.6165 184.973 33.3935 184.973 33.152V32.3807C184.924 32.4205 184.842 32.4574 184.725 32.4915C184.612 32.5256 184.484 32.5554 184.342 32.581C184.2 32.6065 184.059 32.6293 183.92 32.6491C183.781 32.669 183.66 32.6861 183.558 32.7003C183.328 32.7315 183.122 32.7827 182.94 32.8537C182.758 32.9247 182.615 33.0241 182.51 33.152C182.404 33.277 182.352 33.4389 182.352 33.6378C182.352 33.9219 182.456 34.1364 182.663 34.2812C182.87 34.4261 183.135 34.4986 183.456 34.4986ZM192.558 31.5881V32.8537H189.072V31.5881H192.558ZM189.549 28.9545V35.5H188.062V28.9545H189.549ZM193.568 28.9545V35.5H192.085V28.9545H193.568ZM198.026 35.6278C197.37 35.6278 196.803 35.4915 196.326 35.2188C195.852 34.9432 195.487 34.554 195.231 34.0511C194.975 33.5455 194.847 32.9503 194.847 32.2656C194.847 31.5923 194.975 31.0014 195.231 30.4929C195.489 29.9815 195.85 29.5838 196.313 29.2997C196.776 29.0128 197.32 28.8693 197.945 28.8693C198.349 28.8693 198.729 28.9347 199.087 29.0653C199.448 29.1932 199.766 29.392 200.042 29.6619C200.32 29.9318 200.539 30.2756 200.698 30.6932C200.857 31.108 200.937 31.6023 200.937 32.1761V32.6491H195.572V31.6094H199.458C199.455 31.3139 199.391 31.0511 199.266 30.821C199.141 30.5881 198.967 30.4048 198.742 30.2713C198.521 30.1378 198.262 30.071 197.967 30.071C197.651 30.071 197.374 30.1477 197.136 30.3011C196.897 30.4517 196.711 30.6506 196.577 30.8977C196.447 31.142 196.38 31.4105 196.377 31.7031V32.6108C196.377 32.9915 196.447 33.3182 196.586 33.5909C196.725 33.8608 196.92 34.0682 197.17 34.2131C197.42 34.3551 197.712 34.4261 198.048 34.4261C198.272 34.4261 198.475 34.3949 198.657 34.3324C198.839 34.267 198.996 34.1719 199.13 34.0469C199.263 33.9219 199.364 33.767 199.433 33.5824L200.873 33.7443C200.782 34.125 200.609 34.4574 200.353 34.7415C200.1 35.0227 199.776 35.2415 199.381 35.3977C198.987 35.5511 198.535 35.6278 198.026 35.6278Z" fill="#FB4A7B"/>
</svg>
